# xmcd CD database file
# Copyright (C) 1997 Ti Kan
#
# Track frame offsets:
#  150
#  20940
#  59693
#  94127
#  106183
#  126471
#  156119
#  178320
#  191877
#  228908
#  243378
#  260891
#  277413
#  302742
#
# Disc length: 4252 seconds
#
# Revision: 1
# Processed by: cddbd v1.4b41PL1 Copyright (c) Steve Scherf et al.
# Submitted via: CDWizzard Release:4.35
#
DISCID=dd109a0e
DTITLE=Various Artist - Southern Comfort Rocks the Blues Volume 2
DYEAR=1900
DGENRE=
TTITLE0=all the time in the world
TTITLE1=Let It Roll (Live)
TTITLE2=My Time After Awhile
TTITLE3=Lovin' In My Baby's Eyes
TTITLE4=Is This Love?
TTITLE5=This Ain't Living
TTITLE6=Wait Till the Medicine Show
TTITLE7=Roll
TTITLE8=Dog Star (Fly On)
TTITLE9=Get Out My Way
TTITLE10=Send Down the World
TTITLE11=Crimes of Humanity
TTITLE12=Oh Atlanta
TTITLE13=Benny's Cadillac
EXTD=
EXTT0=the subdudes
EXTT1=Little Feat
EXTT2=Buddy Guy
EXTT3=Taj Mahal
EXTT4=The Iguanas
EXTT5=G. Love and Special Sauce
EXTT6=The Radiators
EXTT7=Boxing Gandhis
EXTT8=P-Funk All Stars
EXTT9=Sista' Monica
EXTT10=Gingham Shmuz
EXTT11=Cathy Richardson Band
EXTT12=Little Feat
EXTT13=The Iguanas
PLAYORDER=
